<mxfile host="65bd71144e">
    <diagram id="z9cO29gwt7oX0-JFSar5" name="Page-1">
        <mxGraphModel dx="257" dy="661" grid="1" gridSize="10" guides="1" tooltips="1" connect="1" arrows="1" fold="1" page="1" pageScale="1" pageWidth="827" pageHeight="1169" math="0" shadow="0">
            <root>
                <mxCell id="0"/>
                <mxCell id="1" parent="0"/>
                <mxCell id="3" value="Tomcat最大线程数 * 1000" style="text;html=1;strokeColor=none;fillColor=none;align=center;verticalAlign=middle;whiteSpace=wrap;rounded=0;" vertex="1" parent="1">
                    <mxGeometry x="320" y="194" width="160" height="20" as="geometry"/>
                </mxCell>
                <mxCell id="6" value="" style="endArrow=none;html=1;" edge="1" parent="1">
                    <mxGeometry width="50" height="50" relative="1" as="geometry">
                        <mxPoint x="325" y="214" as="sourcePoint"/>
                        <mxPoint x="475" y="214" as="targetPoint"/>
                    </mxGeometry>
                </mxCell>
                <mxCell id="7" value="RT(ms)" style="text;html=1;strokeColor=none;fillColor=none;align=center;verticalAlign=middle;whiteSpace=wrap;rounded=0;" vertex="1" parent="1">
                    <mxGeometry x="220" y="200" width="60" height="30" as="geometry"/>
                </mxCell>
                <mxCell id="8" value="&amp;gt;" style="text;html=1;strokeColor=none;fillColor=none;align=center;verticalAlign=middle;whiteSpace=wrap;rounded=0;fontSize=28;" vertex="1" parent="1">
                    <mxGeometry x="270" y="200" width="60" height="30" as="geometry"/>
                </mxCell>
                <mxCell id="9" value="QPS" style="text;html=1;strokeColor=none;fillColor=none;align=center;verticalAlign=middle;whiteSpace=wrap;rounded=0;fontSize=12;" vertex="1" parent="1">
                    <mxGeometry x="360" y="214" width="60" height="30" as="geometry"/>
                </mxCell>
                <mxCell id="10" value="" style="endArrow=classic;html=1;fontSize=12;" edge="1" parent="1">
                    <mxGeometry relative="1" as="geometry">
                        <mxPoint x="50" y="440" as="sourcePoint"/>
                        <mxPoint x="150" y="440" as="targetPoint"/>
                    </mxGeometry>
                </mxCell>
                <mxCell id="11" value="Label" style="edgeLabel;resizable=0;html=1;align=center;verticalAlign=middle;fontSize=12;" connectable="0" vertex="1" parent="10">
                    <mxGeometry relative="1" as="geometry"/>
                </mxCell>
            </root>
        </mxGraphModel>
    </diagram>
</mxfile>